<?xml version="1.0" encoding="utf-8"?>
<!-- Generator: Adobe Illustrator 27.0.1, SVG Export Plug-In . SVG Version: 6.00 Build 0)  -->
<svg version="1.1" id="Layer_1" xmlns="http://www.w3.org/2000/svg" xmlns:xlink="http://www.w3.org/1999/xlink" x="0px" y="0px"
	 viewBox="0 0 400 400" style="enable-background:new 0 0 400 400;" xml:space="preserve">
<style type="text/css">
	.st0{fill:#35A9E0;}
	.st1{fill:#1E789B;}
</style>
<polygon class="st0" points="204.33,25.21 39.33,71.75 48.84,144.81 65.02,144.81 57.04,83.43 204.33,41.89 351.63,83.43 
	343.64,144.81 359.82,144.81 369.33,71.75 "/>
<polygon class="st0" points="349.28,225.78 343.11,273.19 283.49,321.14 276.64,326.65 204.33,384.8 132.02,326.65 125.17,321.14 
	65.55,273.19 59.38,225.78 75.57,225.78 80.64,264.72 127.61,302.5 134.46,308 150.79,321.14 157.64,326.65 204.33,364.2 
	251.02,326.65 257.87,321.14 274.21,308 281.05,302.5 328.02,264.72 333.09,225.78 "/>
<polygon class="st1" points="339.01,91.35 204.33,53.36 69.65,91.35 66.86,120.13 62.56,87.08 204.33,47.09 346.1,87.08 
	341.8,120.13 "/>
<g>
	<g>
		<g>
			<path class="st1" d="M110.27,209.94c-0.47-0.79-1.77-1.54-3.27-1.54c-1.93,0-2.86,0.81-2.86,1.83c0,1.2,1.42,1.54,3.07,1.73
				c2.87,0.35,5.55,1.1,5.55,4.39c0,3.07-2.72,4.39-5.79,4.39c-2.82,0-4.98-0.87-6-3.39l2.17-1.12c0.61,1.52,2.21,2.19,3.88,2.19
				c1.63,0,3.17-0.57,3.17-2.07c0-1.3-1.36-1.83-3.19-2.03c-2.82-0.33-5.42-1.08-5.42-4.17c0-2.84,2.8-4,5.34-4.02
				c2.15,0,4.37,0.61,5.42,2.74L110.27,209.94z"/>
			<path class="st1" d="M125.05,220.39h-10.32c0-4.59,0-9.2,0-13.78h10.32v2.52h-7.74v3.17h7.46v2.42h-7.46v3.11h7.74V220.39z"/>
			<path class="st1" d="M139.28,220.39h-3.09l-4.02-4.61h-2.5v4.61h-2.6v-13.8c2.19,0,4.37,0.02,6.56,0.02
				c3.25,0.02,4.96,2.19,4.96,4.57c0,1.89-0.87,3.8-3.49,4.33l4.17,4.71V220.39z M129.67,209.03v4.41h3.96
				c1.65,0,2.36-1.1,2.36-2.21s-0.73-2.21-2.36-2.21H129.67z"/>
			<path class="st1" d="M147.82,220.45h-2.7l-5.73-13.84h2.91l4.15,10.73l4.17-10.73h2.91L147.82,220.45z"/>
			<path class="st1" d="M155.15,220.39v-13.78h2.58v13.78H155.15z"/>
			<path class="st1" d="M172.32,218.66c-1.42,1.4-3.25,2.05-5.24,2.05c-5.12,0-7.29-3.52-7.3-7.11c-0.02-3.6,2.32-7.27,7.3-7.27
				c1.87,0,3.64,0.71,5.06,2.11l-1.73,1.67c-0.91-0.89-2.13-1.3-3.33-1.3c-3.33,0-4.77,2.48-4.74,4.79
				c0.02,2.28,1.34,4.67,4.74,4.67c1.2,0,2.56-0.49,3.47-1.4L172.32,218.66z"/>
			<path class="st1" d="M184.05,220.39h-10.32c0-4.59,0-9.2,0-13.78h10.32v2.52h-7.74v3.17h7.46v2.42h-7.46v3.11h7.74V220.39z"/>
			<path class="st1" d="M199.81,217.79h-7.21l-1.18,2.6h-2.82l6.18-13.78h2.84l6.18,13.78h-2.84L199.81,217.79z M196.2,209.51
				l-2.56,5.87h5.12L196.2,209.51z"/>
			<path class="st1" d="M214.03,206.59h2.6v13.8h-1.61v0.02l-7.25-9.31v9.29h-2.6v-13.78h2.11l6.75,8.55V206.59z"/>
			<path class="st1" d="M231.14,213.38c0.06,3.48-2.07,7.01-6.89,7.01c-1.69,0-3.72,0-5.42,0v-13.78c1.69,0,3.72,0,5.42,0
				C228.97,206.61,231.08,209.98,231.14,213.38z M221.41,217.89h2.84c3.13,0,4.37-2.29,4.31-4.53c-0.06-2.15-1.32-4.29-4.31-4.29
				h-2.84V217.89z"/>
			<path class="st1" d="M249.04,220.39h-3.09l-4.02-4.61h-2.5v4.61h-2.6v-13.8c2.19,0,4.37,0.02,6.56,0.02
				c3.25,0.02,4.96,2.19,4.96,4.57c0,1.89-0.87,3.8-3.49,4.33l4.17,4.71V220.39z M239.43,209.03v4.41h3.96
				c1.65,0,2.36-1.1,2.36-2.21s-0.73-2.21-2.36-2.21H239.43z"/>
			<path class="st1" d="M260.38,220.39h-10.32c0-4.59,0-9.2,0-13.78h10.32v2.52h-7.74v3.17h7.46v2.42h-7.46v3.11h7.74V220.39z"/>
			<path class="st1" d="M268.88,216.34h-3.9v4.06h-2.6v-13.78c2.17,0,4.33-0.02,6.5-0.02C275.61,206.59,275.63,216.34,268.88,216.34
				z M264.98,213.96h3.9c3.33,0,3.31-4.88,0-4.88h-3.9V213.96z"/>
			<path class="st1" d="M285.47,217.79h-7.21l-1.18,2.6h-2.82l6.18-13.78h2.84l6.18,13.78h-2.84L285.47,217.79z M281.86,209.51
				l-2.56,5.87h5.12L281.86,209.51z"/>
			<path class="st1" d="M290.44,220.39v-13.78h2.58v13.78H290.44z"/>
			<path class="st1" d="M307.69,220.39h-3.09l-4.02-4.61h-2.5v4.61h-2.6v-13.8c2.19,0,4.37,0.02,6.56,0.02
				c3.25,0.02,4.96,2.19,4.96,4.57c0,1.89-0.87,3.8-3.49,4.33l4.17,4.71V220.39z M298.08,209.03v4.41h3.96
				c1.65,0,2.36-1.1,2.36-2.21s-0.73-2.21-2.36-2.21H298.08z"/>
		</g>
	</g>
</g>
<g>
	<path class="st0" d="M43.37,197.35l6.42-8.83h8.62c1.03,0,2.1,0,3.21,0s2.08,0.04,2.9,0.1c-0.48-0.61-1.04-1.4-1.67-2.34
		c-0.63-0.94-1.24-1.82-1.82-2.64l-6.16-9.09l-16.12,22.79H26.18l22.02-31.06c0.72-0.99,1.63-1.88,2.72-2.67
		c1.09-0.79,2.48-1.18,4.16-1.18c1.61,0,2.95,0.37,4.03,1.1c1.08,0.74,1.99,1.65,2.74,2.75l21.46,31.06H43.37z"/>
	<path class="st0" d="M127.66,182.36c0,10.37-7.14,15.55-21.41,15.55c-4.14,0-7.7-0.33-10.68-0.97c-2.97-0.65-5.43-1.63-7.36-2.93
		c-1.93-1.3-3.35-2.92-4.26-4.85c-0.91-1.93-1.36-4.2-1.36-6.8v-19.35h10.57v19.35c0,1.27,0.17,2.33,0.51,3.18
		c0.34,0.86,0.98,1.55,1.93,2.08c0.94,0.53,2.26,0.91,3.98,1.13c1.71,0.22,3.94,0.33,6.67,0.33c2.06,0,3.76-0.12,5.13-0.36
		c1.37-0.24,2.46-0.63,3.29-1.18c0.82-0.55,1.41-1.25,1.77-2.11c0.36-0.85,0.54-1.88,0.54-3.08v-19.35h10.67V182.36z"/>
	<path class="st0" d="M176.32,163.01l-6.88,8.93h-12.27v25.41h-10.63v-25.41h-16.12l6.88-8.93H176.32z"/>
	<path class="st0" d="M198.71,162.44c8.35,0,14.62,1.42,18.81,4.26c4.19,2.84,6.29,7.32,6.29,13.45c0,6.16-2.09,10.66-6.26,13.5
		c-4.18,2.84-10.46,4.26-18.84,4.26c-8.42,0-14.71-1.42-18.87-4.26c-4.16-2.84-6.24-7.34-6.24-13.5c0-6.13,2.09-10.61,6.26-13.45
		C184.04,163.86,190.32,162.44,198.71,162.44z M198.71,188.98c2.67,0,4.93-0.11,6.78-0.33c1.85-0.22,3.35-0.66,4.49-1.31
		c1.15-0.65,1.98-1.55,2.49-2.69c0.51-1.15,0.77-2.64,0.77-4.49c0-1.85-0.25-3.35-0.77-4.49c-0.51-1.14-1.34-2.03-2.49-2.67
		c-1.14-0.63-2.64-1.06-4.49-1.28c-1.85-0.22-4.11-0.33-6.78-0.33s-4.93,0.11-6.78,0.33c-1.85,0.23-3.35,0.65-4.49,1.28
		c-1.15,0.63-1.98,1.52-2.49,2.67c-0.51,1.15-0.77,2.64-0.77,4.49c0,1.85,0.26,3.34,0.77,4.49c0.51,1.14,1.34,2.04,2.49,2.69
		c1.14,0.65,2.64,1.09,4.49,1.31C193.78,188.87,196.04,188.98,198.71,188.98z"/>
	<path class="st0" d="M272.88,188.52l-6.83,8.83h-17.25c-2.98,0-5.73-0.44-8.26-1.33c-2.54-0.89-4.72-2.11-6.55-3.67
		s-3.27-3.4-4.31-5.54c-1.04-2.14-1.57-4.46-1.57-6.96c0-2.5,0.52-4.78,1.57-6.86c1.04-2.07,2.48-3.85,4.31-5.34
		c1.83-1.49,4.01-2.63,6.55-3.44c2.53-0.8,5.28-1.21,8.26-1.21h24.07l-6.83,8.93h-17.25c-1.44,0-2.77,0.21-4,0.62
		s-2.29,0.98-3.18,1.72c-0.89,0.74-1.59,1.62-2.11,2.64c-0.51,1.03-0.77,2.16-0.77,3.39c0,1.23,0.25,2.36,0.74,3.36
		c0.5,1.01,1.2,1.88,2.11,2.59c0.91,0.72,1.98,1.27,3.21,1.67c1.23,0.39,2.56,0.59,4,0.59H272.88z"/>
	<path class="st0" d="M289.36,197.35l6.42-8.83h8.62c1.03,0,2.1,0,3.21,0s2.08,0.04,2.9,0.1c-0.48-0.61-1.04-1.4-1.67-2.34
		c-0.63-0.94-1.24-1.82-1.82-2.64l-6.16-9.09l-16.12,22.79h-12.58l22.02-31.06c0.72-0.99,1.63-1.88,2.72-2.67
		c1.09-0.79,2.48-1.18,4.16-1.18c1.61,0,2.95,0.37,4.03,1.1c1.08,0.74,1.99,1.65,2.74,2.75l21.46,31.06H289.36z"/>
	<path class="st0" d="M381.81,197.35h-14.22l-7.65-9.09h-16.33v9.09h-10.62V179.8h29.87c1.64,0,3.03-0.34,4.16-1.03
		c1.13-0.69,1.69-1.63,1.69-2.82c0-1.34-0.51-2.34-1.54-3c-1.02-0.67-2.46-1-4.31-1h-29.87l6.93-8.93h22.07
		c1.95,0,3.97,0.18,6.06,0.54c2.09,0.36,3.99,1,5.7,1.93c1.71,0.92,3.12,2.17,4.24,3.75c1.11,1.57,1.67,3.59,1.67,6.06
		c0,1.34-0.2,2.6-0.61,3.8c-0.41,1.2-1,2.28-1.77,3.24c-0.77,0.96-1.71,1.77-2.82,2.44c-1.11,0.67-2.37,1.14-3.77,1.41
		c0.58,0.45,1.23,1.01,1.95,1.7c0.72,0.69,1.68,1.63,2.87,2.82L381.81,197.35z"/>
</g>
<g>
	<rect x="27.53" y="211.92" class="st1" width="68.69" height="3.78"/>
	<rect x="312.44" y="211.92" class="st1" width="68.69" height="3.78"/>
</g>
<g>
	<polygon class="st1" points="128.74,243.78 132.47,251.34 140.81,252.55 134.78,258.43 136.2,266.74 128.74,262.82 121.28,266.74 
		122.71,258.43 116.67,252.55 125.01,251.34 	"/>
	<polygon class="st1" points="166.54,243.78 170.27,251.34 178.61,252.55 172.57,258.43 174,266.74 166.54,262.82 159.08,266.74 
		160.5,258.43 154.47,252.55 162.81,251.34 	"/>
	<polygon class="st1" points="204.33,243.78 208.06,251.34 216.4,252.55 210.36,258.43 211.79,266.74 204.33,262.82 196.87,266.74 
		198.3,258.43 192.26,252.55 200.6,251.34 	"/>
	<polygon class="st1" points="242.12,243.78 245.85,251.34 254.19,252.55 248.16,258.43 249.58,266.74 242.12,262.82 234.66,266.74 
		236.09,258.43 230.05,252.55 238.39,251.34 	"/>
	<polygon class="st1" points="279.92,243.78 283.65,251.34 291.99,252.55 285.95,258.43 287.38,266.74 279.92,262.82 272.46,266.74 
		273.88,258.43 267.85,252.55 276.19,251.34 	"/>
</g>
<rect x="25.5" y="149.84" class="st1" width="357.66" height="4.38"/>
<path class="st1" d="M317.27,259.19l-30.66,24.66l-6.85,5.51l-0.16,0.13H129.06l-0.16-0.13l-6.85-5.51l-30.66-24.66l-8.62-16.88
	l2.58,19.78l35.33,28.41l5.59,4.49l9.34,7.51l6.85,5.51l0.16,0.13l6.85,5.51l9.34,7.51l6.85,5.51l0.16,0.13l6.85,5.51l31.7,25.5
	l31.7-25.5l6.85-5.51l0.16-0.13l6.85-5.51l9.34-7.51l6.85-5.51l0.16-0.13l6.85-5.51l9.34-7.51l2.49-2l3.1-2.49l35.33-28.41
	l2.58-19.78L317.27,259.19z M204.33,350.02l-22.06-17.74h44.12L204.33,350.02z M240.24,321.14l-6.85,5.51l-0.16,0.13h-57.81
	l-0.16-0.13l-6.85-5.51l-9.34-7.51h90.49L240.24,321.14z M263.42,302.5l-6.85,5.51l-0.16,0.13H152.24l-0.16-0.13l-6.85-5.51
	l-9.34-7.51h136.85L263.42,302.5z"/>
<g>
	<path class="st0" d="M165.12,97.07h-18.84v-0.1c0.07-0.26,0.55-1,1.45-2.19c0.9-1.2,1.96-2.53,3.19-3.99
		c1.23-1.46,2.49-2.87,3.79-4.24c1.3-1.36,2.41-2.34,3.34-2.94h49.95c-0.47,0.93-1.25,2.14-2.34,3.64c-1.1,1.5-2.26,2.98-3.49,4.44
		c-1.23,1.46-2.43,2.73-3.59,3.79c-1.16,1.06-2.01,1.6-2.54,1.6h-11.76l-14.36,39.38h-19.14L165.12,97.07z"/>
	<path class="st0" d="M269.9,83.61c-0.47,0.93-1.25,2.14-2.34,3.64c-1.1,1.5-2.26,2.98-3.49,4.44c-1.23,1.46-2.43,2.73-3.59,3.79
		c-1.16,1.06-2.01,1.6-2.54,1.6h-30.71l-5.68,15.65l9.47-9.17h23.03l-14.26,13.46h-19.84l-2.19,5.98h38.18
		c-0.07,0.13-0.23,0.42-0.5,0.85c-0.27,0.43-0.53,0.88-0.8,1.35c-0.27,0.47-0.53,0.9-0.8,1.3c-0.27,0.4-0.43,0.63-0.5,0.7
		c-0.6,0.8-1.41,1.73-2.44,2.79c-1.03,1.06-2.04,2.08-3.04,3.04c-1,0.96-1.88,1.78-2.64,2.44c-0.77,0.67-1.18,1-1.25,1h-50.15
		l19.24-52.84H269.9z"/>
</g>
</svg>
