<?xml version="1.0" encoding="UTF-8"?>
<svg id="Layer_1" data-name="Layer 1" xmlns="http://www.w3.org/2000/svg" viewBox="0 0 206.84 24.71">
  <defs>
    <style>
      .cls-1 {
        fill: #015349;
      }

      .cls-2 {
        fill: #28b574;
      }

      .cls-3 {
        fill: #00985e;
      }
    </style>
  </defs>
  <g>
    <path class="cls-2" d="M28.67,3.18c5.16,0,7.74,2.97,7.74,6.63,0,2.64-1.44,5.13-4.68,6.09l4.86,8.34h-5.79l-4.38-7.95h-1.23v7.95h-5.13V3.18h8.61Zm-.3,4.26h-3.18v5.22h3.18c1.92,0,2.82-.99,2.82-2.64,0-1.56-.9-2.58-2.82-2.58Z"/>
    <path class="cls-2" d="M45.2,24.48c-4.92,0-8.46-3.3-8.46-8.61s3.48-8.61,8.46-8.61,8.34,3.24,8.34,8.34c0,.48-.03,.99-.09,1.5h-11.61c.18,2.19,1.53,3.21,3.18,3.21,1.44,0,2.25-.72,2.67-1.62h5.46c-.81,3.27-3.78,5.79-7.95,5.79Zm-3.33-10.23h6.42c0-1.83-1.44-2.88-3.15-2.88s-2.97,1.02-3.27,2.88Z"/>
    <path class="cls-2" d="M60.74,7.26c2.49,0,4.26,1.14,5.16,2.61v-2.37h5.13V24.24h-5.13v-2.37c-.93,1.47-2.7,2.61-5.19,2.61-4.08,0-7.35-3.36-7.35-8.64s3.27-8.58,7.38-8.58Zm1.5,4.47c-1.92,0-3.66,1.44-3.66,4.11s1.74,4.17,3.66,4.17,3.66-1.47,3.66-4.14-1.71-4.14-3.66-4.14Z"/>
    <path class="cls-2" d="M77.75,7.26c2.22,0,4.14,1.02,5.16,2.55V2.04h5.13V24.24h-5.13v-2.4c-.93,1.53-2.7,2.64-5.16,2.64-4.11,0-7.38-3.36-7.38-8.64s3.27-8.58,7.38-8.58Zm1.5,4.47c-1.92,0-3.66,1.44-3.66,4.11s1.74,4.17,3.66,4.17,3.66-1.47,3.66-4.14-1.71-4.14-3.66-4.14Z"/>
    <path class="cls-1" d="M88.76,3.18h16.29V7.29h-5.58V24.24h-5.13V7.29h-5.58V3.18Z"/>
    <path class="cls-1" d="M110.9,24.24h-5.13V7.5h5.13v2.79c1.17-1.77,3-2.97,5.25-2.97v5.43h-1.41c-2.43,0-3.84,.84-3.84,3.72v7.77Z"/>
    <path class="cls-1" d="M124.19,24.48c-4.92,0-8.46-3.3-8.46-8.61s3.48-8.61,8.46-8.61,8.34,3.24,8.34,8.34c0,.48-.03,.99-.09,1.5h-11.61c.18,2.19,1.53,3.21,3.18,3.21,1.44,0,2.25-.72,2.67-1.62h5.46c-.81,3.27-3.78,5.79-7.95,5.79Zm-3.33-10.23h6.42c0-1.83-1.44-2.88-3.15-2.88s-2.97,1.02-3.27,2.88Z"/>
    <path class="cls-1" d="M140.81,24.48c-4.92,0-8.46-3.3-8.46-8.61s3.48-8.61,8.46-8.61,8.34,3.24,8.34,8.34c0,.48-.03,.99-.09,1.5h-11.61c.18,2.19,1.53,3.21,3.18,3.21,1.44,0,2.25-.72,2.67-1.62h5.46c-.81,3.27-3.78,5.79-7.95,5.79Zm-3.33-10.23h6.42c0-1.83-1.44-2.88-3.15-2.88s-2.97,1.02-3.27,2.88Z"/>
  </g>
  <path class="cls-2" d="M5.22,3.76c.57-1.16,1.4-2.2,2.45-3.01l.63-.49,.63,.49c1.05,.82,1.88,1.85,2.45,3.01,.57,1.16,.87,2.45,.87,3.78s-.31,2.62-.87,3.78c-.57,1.16-1.4,2.2-2.45,3.01l-.63,.49-.63-.49c-1.05-.82-1.88-1.85-2.45-3.01-.57-1.16-.87-2.45-.87-3.78s.31-2.62,.87-3.78m3.08-.84c-.5,.51-.92,1.1-1.23,1.74-.43,.89-.66,1.87-.66,2.88s.23,2,.66,2.88c.31,.64,.73,1.23,1.23,1.74,.5-.51,.92-1.1,1.23-1.74,.43-.89,.67-1.87,.67-2.88s-.23-2-.67-2.88c-.31-.64-.73-1.23-1.23-1.74Z"/>
  <path class="cls-2" d="M3.4,11.06c-.43-.18-.88-.31-1.34-.39v2.49h0c0,.83,.15,1.64,.46,2.39,.3,.74,.76,1.43,1.34,2.01h0c.58,.58,1.27,1.03,2.02,1.34h0c.44,.18,.89,.31,1.36,.38v-2.33c.02-.85-.13-1.69-.44-2.47-.31-.77-.78-1.49-1.38-2.09h0c-.59-.58-1.27-1.04-2.01-1.35m-2.37-2.53c1.1,0,2.17,.22,3.16,.63,.99,.41,1.91,1.02,2.68,1.79h0c.8,.8,1.42,1.75,1.83,2.78,.41,1.02,.61,2.13,.59,3.25h0v4.42h-1.02c-1.1,.02-2.17-.19-3.17-.6h0c-1-.4-1.92-1.01-2.69-1.79h0c-.77-.77-1.37-1.69-1.79-2.7C.21,15.33,0,14.25,0,13.16H0v-4.63H1.03Z"/>
  <path class="cls-2" d="M15.22,4.32c.33-.11,.68-.15,1.04-.11l.21,.03,.02,.21c.05,.36,0,.71-.11,1.04-.11,.33-.3,.63-.55,.89-.25,.25-.56,.44-.89,.55-.33,.11-.68,.15-1.04,.11l-.21-.03-.03-.21c-.04-.36,0-.71,.11-1.04,.11-.33,.3-.63,.55-.89,.25-.25,.56-.44,.89-.55"/>
  <path class="cls-2" d="M1.3,4.32c-.33-.11-.68-.15-1.04-.11l-.21,.03-.03,.21c-.04,.36,0,.71,.11,1.04,.11,.33,.3,.63,.56,.89,.25,.25,.56,.44,.89,.55,.33,.11,.68,.15,1.04,.11l.21-.03,.03-.21c.04-.36,0-.71-.11-1.04-.11-.33-.3-.63-.55-.89-.25-.25-.56-.44-.89-.55"/>
  <path class="cls-3" d="M7.78,11.56c.16,.21,.33,.41,.52,.59,.5-.51,.92-1.1,1.23-1.74,.18-.36,.32-.74,.43-1.12,.61-.45,1.27-.83,1.97-1.12,.1-.04,.21-.08,.31-.12-.07,1.14-.37,2.25-.86,3.26-.57,1.16-1.4,2.2-2.45,3.01h-.02c.26,.86,.39,1.75,.37,2.65h0v4.42h-1.02c-.71,.02-1.42-.07-2.1-.25v-1.84h0v-.3c.34,.12,.7,.21,1.06,.27v-2.33c.02-.85-.13-1.69-.44-2.47-.06-.15-.13-.3-.2-.45,.08-.24,.16-.48,.25-.71,.25-.62,.56-1.22,.94-1.77"/>
  <path class="cls-1" d="M9.29,21.36v2.66c-.36,.2-.71,.43-1.03,.7-.32-.27-.66-.5-1.03-.69v-3.63h0v-3.41h0c-.02-1.12,.18-2.23,.59-3.25,.41-1.03,1.03-1.98,1.83-2.78,.77-.77,1.68-1.38,2.68-1.79,.99-.41,2.06-.63,3.16-.63h1.03s0,1.02,0,1.02v3.61h0c.01,1.1-.2,2.17-.6,3.16h0c-.41,1.01-1.01,1.93-1.79,2.7-.78,.78-1.7,1.38-2.7,1.79h0c-.68,.28-1.4,.46-2.14,.55m5.18-10.69c-.46,.08-.91,.21-1.34,.39-.74,.31-1.42,.76-2.01,1.35-.61,.6-1.07,1.32-1.38,2.09-.31,.78-.47,1.62-.45,2.47v.02s0,2.31,0,2.31c.47-.07,.93-.2,1.36-.38h0c.74-.31,1.43-.76,2.01-1.34,.59-.59,1.04-1.27,1.34-2.01h0c.31-.76,.47-1.57,.46-2.39h0v-2.5Z"/>
  <g>
    <path class="cls-2" d="M195.54,3.51c.57-1.16,1.4-2.2,2.45-3.01l.63-.49,.63,.49c1.05,.82,1.88,1.85,2.45,3.01,.57,1.16,.87,2.45,.87,3.78s-.31,2.62-.87,3.78c-.57,1.16-1.4,2.2-2.45,3.01l-.63,.49-.63-.49c-1.05-.82-1.88-1.85-2.45-3.01-.57-1.16-.87-2.45-.87-3.78s.31-2.62,.87-3.78m3.08-.84c-.5,.51-.92,1.1-1.23,1.74-.43,.89-.66,1.87-.66,2.88s.23,2,.66,2.88c.31,.64,.73,1.23,1.23,1.74,.5-.51,.92-1.1,1.23-1.74,.43-.89,.67-1.87,.67-2.88s-.23-2-.67-2.88c-.31-.64-.73-1.23-1.23-1.74Z"/>
    <path class="cls-2" d="M193.72,10.81c-.43-.18-.88-.31-1.34-.39v2.49h0c0,.83,.15,1.64,.46,2.39,.3,.74,.76,1.43,1.34,2.01h0c.58,.58,1.27,1.03,2.02,1.34h0c.44,.18,.89,.31,1.36,.38v-2.33c.02-.85-.13-1.69-.44-2.47-.31-.77-.78-1.49-1.38-2.09h0c-.59-.58-1.27-1.04-2.01-1.35m-2.37-2.53c1.1,0,2.17,.22,3.16,.63,.99,.41,1.91,1.02,2.68,1.79h0c.8,.8,1.42,1.75,1.83,2.78,.41,1.02,.61,2.13,.59,3.25h0v4.42h-1.02c-1.1,.02-2.17-.19-3.17-.6h0c-1-.4-1.92-1.01-2.69-1.79h0c-.77-.77-1.37-1.69-1.79-2.7-.41-1-.62-2.07-.61-3.16h0v-4.63h1.03Z"/>
    <path class="cls-2" d="M205.54,4.07c.33-.11,.68-.15,1.04-.11l.21,.03,.02,.21c.05,.36,0,.71-.11,1.04-.11,.33-.3,.63-.55,.89-.25,.25-.56,.44-.89,.55-.33,.11-.68,.15-1.04,.11l-.21-.03-.03-.21c-.04-.36,0-.71,.11-1.04,.11-.33,.3-.63,.55-.89,.25-.25,.56-.44,.89-.55"/>
    <path class="cls-2" d="M191.62,4.07c-.33-.11-.68-.15-1.04-.11l-.21,.03-.03,.21c-.04,.36,0,.71,.11,1.04,.11,.33,.3,.63,.56,.89,.25,.25,.56,.44,.89,.55,.33,.11,.68,.15,1.04,.11l.21-.03,.03-.21c.04-.36,0-.71-.11-1.04-.11-.33-.3-.63-.55-.89-.25-.25-.56-.44-.89-.55"/>
    <path class="cls-3" d="M198.1,11.32c.16,.21,.33,.41,.52,.59,.5-.51,.92-1.1,1.23-1.74,.18-.36,.32-.74,.43-1.12,.61-.45,1.27-.83,1.97-1.12,.1-.04,.21-.08,.31-.12-.07,1.14-.37,2.25-.86,3.26-.57,1.16-1.4,2.2-2.45,3.01h-.02c.26,.86,.39,1.75,.37,2.65h0v4.42h-1.02c-.71,.02-1.42-.07-2.1-.25v-1.84h0v-.3c.34,.12,.7,.21,1.06,.27v-2.33c.02-.85-.13-1.69-.44-2.47-.06-.15-.13-.3-.2-.45,.08-.24,.16-.48,.25-.71,.25-.62,.56-1.22,.94-1.77"/>
    <path class="cls-1" d="M199.61,21.11v2.66c-.36,.2-.71,.43-1.03,.7-.32-.27-.66-.5-1.03-.69v-3.63h0v-3.41h0c-.02-1.12,.18-2.23,.59-3.25,.41-1.03,1.03-1.98,1.83-2.78,.77-.77,1.68-1.38,2.68-1.79,.99-.41,2.06-.63,3.16-.63h1.03s0,1.02,0,1.02v3.61h0c.01,1.1-.2,2.17-.6,3.16h0c-.41,1.01-1.01,1.93-1.79,2.7-.78,.78-1.7,1.38-2.7,1.79h0c-.68,.28-1.4,.46-2.14,.55m5.18-10.69c-.46,.08-.91,.21-1.34,.39-.74,.31-1.42,.76-2.01,1.35-.61,.6-1.07,1.32-1.38,2.09-.31,.78-.47,1.62-.45,2.47v.02s0,2.31,0,2.31c.47-.07,.93-.2,1.36-.38h0c.74-.31,1.43-.76,2.01-1.34,.59-.59,1.04-1.27,1.34-2.01h0c.31-.76,.47-1.57,.46-2.39h0v-2.5Z"/>
  </g>
</svg>